HIERARCHY
ROOT reference
{
  OFFSET 0 0 0
  CHANNELS 6 Xposition Yposition Zposition Zrotation Xrotation Yrotation
  JOINT root
  {
    OFFSET 0 88.2491 0
    CHANNELS 6 Xposition Yposition Zposition Zrotation Xrotation Yrotation
    JOINT Hips
    {
      OFFSET 0 -1.5e-05 0
      CHANNELS 6 Xposition Yposition Zposition Zrotation Xrotation Yrotation
      JOINT Spine
      {
        OFFSET -0.026471 -0.105476 -0.013591
        CHANNELS 6 Xposition Yposition Zposition Zrotation Xrotation Yrotation
        JOINT Spine1
        {
          OFFSET 4.85354 17.1934 5.0275
          CHANNELS 6 Xposition Yposition Zposition Zrotation Xrotation Yrotation
          JOINT Spine2
          {
            OFFSET 3.45712 17.0434 6.48957
            CHANNELS 6 Xposition Yposition Zposition Zrotation Xrotation Yrotation
            JOINT Neck
            {
              OFFSET 5.14072 15.5861 8.66939
              CHANNELS 6 Xposition Yposition Zposition Zrotation Xrotation Yrotation
              JOINT Head
              {
                OFFSET 4.15252 8.55486 6.52394
                CHANNELS 6 Xposition Yposition Zposition Zrotation Xrotation Yrotation
                End Site
                {
                  OFFSET 0 0 0
                }
              }
            }
            JOINT RightShoulder
            {
              OFFSET 3.29961 14.5422 11.6337
              CHANNELS 6 Xposition Yposition Zposition Zrotation Xrotation Yrotation
              JOINT RightArm
              {
                OFFSET -5.33341 -8.03215 12.8703
                CHANNELS 6 Xposition Yposition Zposition Zrotation Xrotation Yrotation
                JOINT RightForearm
                {
                  OFFSET -0.595417 -13.7862 25.9663
                  CHANNELS 6 Xposition Yposition Zposition Zrotation Xrotation Yrotation
                  JOINT RightHand
                  {
                    OFFSET 13.5169 -1.52003 20.8898
                    CHANNELS 6 Xposition Yposition Zposition Zrotation Xrotation Yrotation
                    End Site
                    {
                      OFFSET 0 0 0
                    }
                  }
                }
              }
            }
            JOINT LeftShoulder
            {
              OFFSET 6.99272 16.6181 5.71374
              CHANNELS 6 Xposition Yposition Zposition Zrotation Xrotation Yrotation
              JOINT LeftArm
              {
                OFFSET 6.71871 3.24728 -14.245
                CHANNELS 6 Xposition Yposition Zposition Zrotation Xrotation Yrotation
                JOINT LeftForearm
                {
                  OFFSET -8.81742 -14.5927 -23.9577
                  CHANNELS 6 Xposition Yposition Zposition Zrotation Xrotation Yrotation
                  JOINT LeftHand
                  {
                    OFFSET 10.5264 -21.3111 -7.51206
                    CHANNELS 6 Xposition Yposition Zposition Zrotation Xrotation Yrotation
                    End Site
                    {
                      OFFSET 0 0 0
                    }
                  }
                }
              }
            }
          }
        }
      }
      JOINT RightUpLeg
      {
        OFFSET -4.59323 -0.383095 8.37345
        CHANNELS 6 Xposition Yposition Zposition Zrotation Xrotation Yrotation
        JOINT RightLeg
        {
          OFFSET 10.2067 -39.0446 19.9636
          CHANNELS 6 Xposition Yposition Zposition Zrotation Xrotation Yrotation
          JOINT RightFoot
          {
            OFFSET -4.84224 -40.8755 1.14925
            CHANNELS 6 Xposition Yposition Zposition Zrotation Xrotation Yrotation
            JOINT RightToe
            {
              OFFSET 9.73669 -6.85347 13.5043
              CHANNELS 6 Xposition Yposition Zposition Zrotation Xrotation Yrotation
              End Site
              {
                OFFSET 0 0 0
              }
            }
          }
        }
      }
      JOINT LeftUpLeg
      {
        OFFSET 4.59322 0.383111 -8.37344
        CHANNELS 6 Xposition Yposition Zposition Zrotation Xrotation Yrotation
        JOINT LeftLeg
        {
          OFFSET 5.42552 -42.6869 -13.2512
          CHANNELS 6 Xposition Yposition Zposition Zrotation Xrotation Yrotation
          JOINT LeftFoot
          {
            OFFSET -11.0952 -37.6886 -12.3303
            CHANNELS 6 Xposition Yposition Zposition Zrotation Xrotation Yrotation
            JOINT LeftToe
            {
              OFFSET 16.3568 -7.51905 0.239311
              CHANNELS 6 Xposition Yposition Zposition Zrotation Xrotation Yrotation
              End Site
              {
                OFFSET 0 0 0
              }
            }
          }
        }
      }
    }
  }
}
MOTION
Frames:	8
Frame Time:	0.0333333
0 0 0 0 0 -0 -1.89558 88.2514 14.7702 -1.62894 0.256478 6.07488 -2e-06 -1.5e-05 -2e-06 0.41338 0.772763 -0.287489 -0.026471 -0.105476 -0.013591 0.290313 -0.0551876 -0.384226 4.85354 17.1934 5.0275 0.209185 -0.203501 -0.962809 3.45712 17.0434 6.48957 0.0718304 -0.142254 -0.665865 5.14072 15.5861 8.66939 0.475917 0.0463721 -0.972607 4.15252 8.55486 6.52394 0.875169 -0.981875 -1.57829 3.29961 14.5422 11.6337 0.871484 0.649918 1.49327 -5.33341 -8.03215 12.8703 0.662507 -4.88874 -1.49984 -0.595417 -13.7862 25.9663 -3.52642 5.36069 -7.33886 13.5169 -1.52003 20.8898 3.06224 1.71995 -0.689897 6.99272 16.6181 5.71374 0.964239 0.793425 1.46284 6.71871 3.24728 -14.245 -3.77862 -4.41752 -3.82591 -8.81742 -14.5927 -23.9577 9.70434 -13.3376 -8.88519 10.5264 -21.3111 -7.51206 -1.48283 0.652912 -2.59022 -4.59323 -0.383095 8.37345 4.36052 6.96736 -5.20203 10.2067 -39.0446 19.9636 -4.93184 6.34036 -0.615119 -4.84224 -40.8755 1.14925 2.84565 -19.3952 2.23961 9.73669 -6.85347 13.5043 -0.0204804 4.2566 -0.183627 4.59322 0.383111 -8.37344 -6.88999 9.03474 -4.46537 5.42552 -42.6869 -13.2512 21.2794 -2.06856 -6.43205 -11.0952 -37.6886 -12.3303 -18.7828 -8.77301 6.3326 16.3568 -7.51905 0.239311 6.23046 -2.14965 -0.106782 
0 0 0 0 0 -0 -1.89234 89.0637 13.8371 -2.01999 0.285598 5.76267 -2e-06 -1.5e-05 -2e-06 0.501006 0.935354 -0.348847 -0.026471 -0.105476 -0.013591 0.362956 -0.0727334 -0.267248 4.85354 17.1934 5.0275 0.300138 -0.25473 -0.904795 3.45712 17.0434 6.48957 0.136871 -0.17799 -0.632918 5.14072 15.5861 8.66939 0.373971 0.128659 -0.956673 4.15252 8.55486 6.52394 0.745697 -0.772067 -1.62153 3.29961 14.5422 11.6337 0.778079 0.574419 1.33469 -5.33341 -8.03215 12.8703 1.15562 -4.86426 -1.94502 -0.595417 -13.7862 25.9663 -2.89683 4.28948 -5.94186 13.5169 -1.52003 20.8898 2.02922 0.780284 -0.0861694 6.99272 16.6181 5.71374 1.01885 0.942807 1.40127 6.71871 3.24728 -14.245 -4.19778 -4.52456 -3.66512 -8.81742 -14.5927 -23.9577 7.6792 -10.2189 -7.06369 10.5264 -21.3111 -7.51206 -1.47888 0.85885 -3.23764 -4.59323 -0.383095 8.37345 3.65456 7.30048 -4.94912 10.2067 -39.0446 19.9636 -2.99266 3.83606 -0.43758 -4.84224 -40.8755 1.14925 1.81512 -16.5301 2.04415 9.73669 -6.85347 13.5043 -0.0394996 3.52608 -0.153432 4.59322 0.383111 -8.37344 -6.56983 8.41776 -4.56399 5.42552 -42.6869 -13.2512 21.2392 -2.06817 -6.43107 -11.0952 -37.6886 -12.3303 -20.6408 -10.825 6.64056 16.3568 -7.51905 0.239311 8.41357 -0.176511 -0.306491 
0 0 0 0 0 -0 -1.84773 90.0249 12.5733 -2.46534 0.280822 5.1332 -2e-06 -1.5e-05 -2e-06 0.626874 1.16818 -0.437175 -0.026471 -0.105476 -0.013591 0.451305 -0.0771178 -0.0509641 4.85354 17.1934 5.0275 0.418881 -0.297354 -0.749328 3.45712 17.0434 6.48957 0.227528 -0.208167 -0.535903 5.14072 15.5861 8.66939 0.265037 0.153725 -0.894777 4.15252 8.55486 6.52394 0.57143 -0.605364 -1.55274 3.29961 14.5422 11.6337 0.642499 0.438151 1.12502 -5.33341 -8.03215 12.8703 1.87735 -4.79134 -2.39275 -0.595417 -13.7862 25.9663 -2.23441 3.22197 -4.51871 13.5169 -1.52003 20.8898 1.00375 -0.262947 0.555056 6.99272 16.6181 5.71374 1.09566 1.14621 1.3234 6.71871 3.24728 -14.245 -4.68177 -4.559 -3.43285 -8.81742 -14.5927 -23.9577 5.79611 -7.48216 -5.35212 10.5264 -21.3111 -7.51206 -1.10764 0.877919 -3.39204 -4.59323 -0.383095 8.37345 2.74841 7.56257 -4.44754 10.2067 -39.0446 19.9636 -0.609809 0.777113 -0.105035 -4.84224 -40.8755 1.14925 0.488001 -12.3456 1.82895 9.73669 -6.85347 13.5043 -0.0447434 2.1143 -0.0939063 4.59322 0.383111 -8.37344 -6.28701 7.41203 -4.02539 5.42552 -42.6869 -13.2512 21.2576 -2.06761 -6.42978 -11.0952 -37.6886 -12.3303 -22.3054 -12.5871 7.11812 16.3568 -7.51905 0.239311 10.1633 1.83677 -0.553292 
0 0 0 0 0 -0 -1.70782 90.9406 11.048 -2.83629 0.220709 4.28695 -2e-06 -1.5e-05 -2e-06 0.770349 1.4325 -0.538128 -0.026471 -0.105476 -0.013591 0.517644 -0.042724 0.206624 4.85354 17.1934 5.0275 0.511884 -0.288634 -0.546081 3.45712 17.0434 6.48957 0.304666 -0.203256 -0.404837 5.14072 15.5861 8.66939 0.193784 0.151432 -0.868777 4.15252 8.55486 6.52394 0.446023 -0.522357 -1.52807 3.29961 14.5422 11.6337 0.46133 0.249432 0.852757 -5.33341 -8.03215 12.8703 2.66492 -4.73592 -2.63992 -0.595417 -13.7862 25.9663 -1.58612 2.23063 -3.16657 13.5169 -1.52003 20.8898 0.290111 -0.980159 0.839955 6.99272 16.6181 5.71374 1.16471 1.36124 1.20608 6.71871 3.24728 -14.245 -5.18598 -4.5653 -3.18276 -8.81742 -14.5927 -23.9577 4.08485 -5.12827 -3.78392 10.5264 -21.3111 -7.51206 -0.59394 0.771668 -3.14512 -4.59323 -0.383095 8.37345 1.56518 7.70005 -3.62003 10.2067 -39.0446 19.9636 1.97804 -2.49806 0.395288 -4.84224 -40.8755 1.14925 -0.82402 -7.14202 1.51316 9.73669 -6.85347 13.5043 -0.124862 0.0968767 -0.0185729 4.59322 0.383111 -8.37344 -6.14911 6.15843 -2.93691 5.42552 -42.6869 -13.2512 21.2635 -2.06699 -6.42835 -11.0952 -37.6886 -12.3303 -23.3937 -13.5793 7.47752 16.3568 -7.51905 0.239311 11.3506 3.47918 -0.777081 
0 0 0 0 0 -0 -1.52123 91.6216 9.38712 -2.9852 0.320878 3.40676 -2e-06 -1.5e-05 -2e-06 0.783902 1.4574 -0.547682 -0.026471 -0.105476 -0.013591 0.558501 0.00949454 0.368097 4.85354 17.1934 5.0275 0.590682 -0.221049 -0.355374 3.45712 17.0434 6.48957 0.372047 -0.158216 -0.281309 5.14072 15.5861 8.66939 0.140773 0.155045 -0.821314 4.15252 8.55486 6.52394 0.351521 -0.42625 -1.47315 3.29961 14.5422 11.6337 0.269257 0.0863153 0.540542 -5.33341 -8.03215 12.8703 3.27642 -4.7553 -2.54125 -0.595417 -13.7862 25.9663 -1.02412 1.41033 -2.02323 13.5169 -1.52003 20.8898 -0.164043 -1.41049 0.893497 6.99272 16.6181 5.71374 1.20534 1.53218 1.07083 6.71871 3.24728 -14.245 -5.65416 -4.46929 -3.09423 -8.81742 -14.5927 -23.9577 2.53293 -3.10019 -2.35253 10.5264 -21.3111 -7.51206 -0.285332 0.541298 -2.73071 -4.59323 -0.383095 8.37345 0.334007 7.57349 -2.52009 10.2067 -39.0446 19.9636 4.23927 -5.30009 0.946749 -4.84224 -40.8755 1.14925 -1.83838 -2.23597 0.875657 9.73669 -6.85347 13.5043 -0.227538 -1.7663 0.043422 4.59322 0.383111 -8.37344 -6.19133 4.90767 -1.77252 5.42552 -42.6869 -13.2512 21.2511 -2.06637 -6.42691 -11.0952 -37.6886 -12.3303 -23.6833 -13.6071 7.56877 16.3568 -7.51905 0.239311 11.8117 4.50698 -0.913998 
0 0 0 0 0 -0 -1.30945 91.9811 7.66262 -2.96309 0.380672 2.56369 -2e-06 -1.5e-05 -2e-06 0.744957 1.3858 -0.520208 -0.026471 -0.105476 -0.013591 0.575071 0.0869207 0.45864 4.85354 17.1934 5.0275 0.642376 -0.101737 -0.201932 3.45712 17.0434 6.48957 0.419238 -0.0777031 -0.181218 5.14072 15.5861 8.66939 0.104741 0.170091 -0.740332 4.15252 8.55486 6.52394 0.288414 -0.303077 -1.36926 3.29961 14.5422 11.6337 0.0890183 -0.0287074 0.221841 -5.33341 -8.03215 12.8703 3.69509 -4.81787 -2.13779 -0.595417 -13.7862 25.9663 -0.568605 0.770135 -1.11426 13.5169 -1.52003 20.8898 -0.434742 -1.62752 0.800444 6.99272 16.6181 5.71374 1.204 1.63071 0.920829 6.71871 3.24728 -14.245 -6.01385 -4.23781 -3.16341 -8.81742 -14.5927 -23.9577 1.15265 -1.37914 -1.07287 10.5264 -21.3111 -7.51206 -0.159127 0.253193 -2.28286 -4.59323 -0.383095 8.37345 -0.761832 7.21587 -1.42542 10.2067 -39.0446 19.9636 5.98101 -7.41019 1.44125 -4.84224 -40.8755 1.14925 -2.52781 1.82212 0.0995095 9.73669 -6.85347 13.5043 -0.309382 -3.16611 0.0861429 4.59322 0.383111 -8.37344 -6.41207 3.75203 -0.651651 5.42552 -42.6869 -13.2512 21.2637 -2.06586 -6.42563 -11.0952 -37.6886 -12.3303 -23.1319 -12.6379 7.38285 16.3568 -7.51905 0.239311 11.395 4.86894 -0.920795 
0 0 0 0 0 -0 -1.10976 91.9377 5.99532 -2.76919 0.353713 1.83994 -2e-06 -1.5e-05 -2e-06 0.65927 1.22796 -0.459875 -0.026471 -0.105476 -0.013591 0.539135 0.166591 0.463574 4.85354 17.1934 5.0275 0.62308 0.0363601 -0.104929 3.45712 17.0434 6.48957 0.414815 0.0164452 -0.114402 5.14072 15.5861 8.66939 0.0953839 0.185979 -0.620195 4.15252 8.55486 6.52394 0.26937 -0.175405 -1.19236 3.29961 14.5422 11.6337 -0.023177 -0.0763655 0.00627211 -5.33341 -8.03215 12.8703 4.02978 -4.75566 -1.7224 -0.595417 -13.7862 25.9663 -0.185254 0.247486 -0.360657 13.5169 -1.52003 20.8898 -0.719113 -1.88593 0.819902 6.99272 16.6181 5.71374 1.15401 1.63627 0.768878 6.71871 3.24728 -14.245 -6.05114 -3.82627 -3.21619 -8.81742 -14.5927 -23.9577 -0.038469 0.0451499 0.0358783 10.5264 -21.3111 -7.51206 0.277903 0.138863 -2.04181 -4.59323 -0.383095 8.37345 -1.35901 6.60992 -0.690534 10.2067 -39.0446 19.9636 6.79097 -8.37519 1.69116 -4.84224 -40.8755 1.14925 -2.98907 4.29937 -0.699696 9.73669 -6.85347 13.5043 -0.204771 -3.81301 0.127289 4.59322 0.383111 -8.37344 -6.80984 2.79713 0.460601 5.42552 -42.6869 -13.2512 21.2513 -2.06552 -6.42467 -11.0952 -37.6886 -12.3303 -21.5856 -10.8008 6.80014 16.3568 -7.51905 0.239311 9.71108 4.62727 -0.756907 
0 0 0 0 0 -0 -0.922866 91.4489 4.3597 -2.42184 0.237345 1.31718 -2e-06 -1.5e-05 -2e-06 0.601977 1.1222 -0.419666 -0.026471 -0.105476 -0.013591 0.445458 0.223033 0.429712 4.85354 17.1934 5.0275 0.51249 0.138639 -0.0636766 3.45712 17.0434 6.48957 0.34424 0.0874641 -0.0789789 5.14072 15.5861 8.66939 0.105833 0.158465 -0.508969 4.15252 8.55486 6.52394 0.263075 -0.146921 -0.992303 3.29961 14.5422 11.6337 -0.131578 -0.119174 -0.204199 -5.33341 -8.03215 12.8703 4.3665 -4.50044 -1.29496 -0.595417 -13.7862 25.9663 0.159342 -0.210307 0.308446 13.5169 -1.52003 20.8898 -0.872057 -2.00471 0.84938 6.99272 16.6181 5.71374 0.972593 1.46816 0.501585 6.71871 3.24728 -14.245 -5.66941 -3.17206 -3.04926 -8.81742 -14.5927 -23.9577 -0.993934 1.14794 0.928031 10.5264 -21.3111 -7.51206 0.75788 -0.00920115 -1.60525 -4.59323 -0.383095 8.37345 -1.34958 5.3836 -0.459117 10.2067 -39.0446 19.9636 6.19295 -7.66373 1.50543 -4.84224 -40.8755 1.14925 -2.69254 4.74067 -0.974843 9.73669 -6.85347 13.5043 -0.315499 -3.38946 0.0884682 4.59322 0.383111 -8.37344 -7.41125 1.87455 1.49698 5.42552 -42.6869 -13.2512 21.2579 -2.06544 -6.42651 -11.0952 -37.6886 -12.3303 -19.3285 -8.3614 5.97586 16.3568 -7.51905 0.239311 7.41672 3.89358 -0.530794 
